# xmcd
#
# Track frame offsets: 
#        150
#        25225
#        37423
#        53406
#        67077
#        96022
#        118186
#        132213
#        151863
#        165777
#        180913
#
# Disc length: 2701 seconds
#
# Revision: 0
# Processed by: cddbd v1.5.2PL0 Copyright (c) Steve Scherf et al.
# Submitted via: ExactAudioCopy v1.0b1
#
DISCID=850a8b0b
DTITLE=Willie Nelson with Ryan Adams and the Cardinals - Songbird
DYEAR=2006
DGENRE=Country
TTITLE0=Rainy Day Blues
TTITLE1=Songbird
TTITLE2=Blue Hotel
TTITLE3=Back to Earth
TTITLE4=Stella Blue
TTITLE5=Hallelujah
TTITLE6=$1000 Wedding
TTITLE7=We Don't Run
TTITLE8=Yours Love
TTITLE9=Sad Songs And Waltzes
TTITLE10=Amazing Grace
EXTD=
EXTT0=
EXTT1=
EXTT2=
EXTT3=
EXTT4=
EXTT5=
EXTT6=
EXTT7=
EXTT8=
EXTT9=
EXTT10=
PLAYORDER=
